<?xml version="1.0" encoding="UTF-8" standalone="no"?>
<svg
   data-name="Layer 1"
   viewBox="0 0 65 65"
   x="0px"
   y="0px"
   version="1.1"
   id="svg3"
   sodipodi:docname="screen_off.svg"
   width="65"
   height="65"
   inkscape:version="1.4 (86a8ad7, 2024-10-11)"
   xmlns:inkscape="http://www.inkscape.org/namespaces/inkscape"
   xmlns:sodipodi="http://sodipodi.sourceforge.net/DTD/sodipodi-0.dtd"
   xmlns="http://www.w3.org/2000/svg"
   xmlns:svg="http://www.w3.org/2000/svg"
   xmlns:rdf="http://www.w3.org/1999/02/22-rdf-syntax-ns#"
   xmlns:cc="http://creativecommons.org/ns#"
   xmlns:dc="http://purl.org/dc/elements/1.1/">
  <defs
     id="defs3" />
  <sodipodi:namedview
     id="namedview3"
     pagecolor="#ffffff"
     bordercolor="#000000"
     borderopacity="0.25"
     inkscape:showpageshadow="2"
     inkscape:pageopacity="0.0"
     inkscape:pagecheckerboard="0"
     inkscape:deskcolor="#d1d1d1"
     showgrid="false"
     inkscape:zoom="15.1625"
     inkscape:cx="30.766694"
     inkscape:cy="32.547403"
     inkscape:window-width="2560"
     inkscape:window-height="1494"
     inkscape:window-x="-11"
     inkscape:window-y="-11"
     inkscape:window-maximized="1"
     inkscape:current-layer="svg3" />
  <title
     id="title1">Basic ui 4</title>
  <g
     id="g3"
     transform="translate(1.7468511,7.9754091)">
    <path
       d="m 41.169585,42.539179 h -20.84 a 2,2 0 0 0 0,3.95 v 0 a 3.34,3.34 0 0 0 3.24,2.56 h 14.31 a 3.34,3.34 0 0 0 3.24,-2.51 v 0 a 2,2 0 0 0 0,-3.95 z"
       id="path1" />
    <path
       d="M 52.519585,0.31917914 H 8.9795849 a 5.24,5.24 0 0 0 -5.23,5.21999996 V 33.399179 l 3.95,-2.52 V 5.5391791 a 1.29,1.29 0 0 1 1.28,-1.28 H 49.489585 l 5.35,-3.39999996 a 5.2,5.2 0 0 0 -2.32,-0.54 z"
       id="path2" />
    <path
       d="m 53.799585,10.429179 v 23.26 h -36.52 l -10.6200001,6.76 a 5.19,5.19 0 0 0 2.32,0.54 H 52.519585 a 5.24,5.24 0 0 0 5.23,-5.23 V 7.9091791 Z"
       id="path3" />
    <rect
       x="-20.254995"
       y="31.806221"
       width="70.199997"
       height="4.27"
       transform="rotate(-32.49)"
       id="rect3" />
  </g>
  <metadata
     id="metadata3">
    <rdf:RDF>
      <cc:Work
         rdf:about="">
        <dc:title>Basic ui 4</dc:title>
      </cc:Work>
    </rdf:RDF>
  </metadata>
</svg>
